<svg xmlns="http://www.w3.org/2000/svg" viewBox="32 2 150 150">
  <g fill="none" stroke="#20201F" stroke-width="6" stroke-linecap="round" stroke-linejoin="round">
    <path d="M 60 80 C 55 45, 85 25, 105 25 C 130 25, 150 48, 148 80 C 146 110, 130 130, 105 132 C 80 132, 62 115, 60 80 Z"/>
    <path d="M 146 85 C 155 83, 157 93, 152 98 C 148 101, 145 99, 145 95 Z"/>
    <circle cx="88" cy="75" r="5" fill="#20201F"/>
    <circle cx="120" cy="75" r="5" fill="#20201F"/>
    <path d="M 82 65 L 94 63" stroke-width="4"/>
    <path d="M 114 63 L 126 65" stroke-width="4"/>
    <path d="M 92 112 Q 104 118, 116 112"/>
    <path d="M 75 40 Q 80 28, 90 30" stroke-width="4"/>
    <path d="M 92 32 Q 100 22, 110 28" stroke-width="4"/>
    <path d="M 110 28 Q 120 22, 128 32" stroke-width="4"/>
  </g>
</svg>
